<svg height="131.20610972397202" width="350.00000000000006" style="width: 350px; height: 131.206px; position: absolute; top: 50%; left: 50%; transform: translate(-50%, -50%) scale(1); z-index: 0; cursor: pointer;"><g id="SvgjsG1007" featurekey="tpnldm-0" transform="matrix(5.34351145038168,0,0,5.34351145038168,-3.206106360632045,24.335885175311837)" fill="#000"><path d="M6.84 20 l0.1 -16.5 l-1.56 16.5 l-1.66 0 l-1.56 -16.5 l0.1 16.5 l-1.66 0 l0 -18.68 l3.12 0 l0.82 11.72 l0.84 -11.72 l3.12 0 l0 18.68 l-1.66 0 z M9.62 20 l0.98 -18.68 l2.82 0 l0.98 18.68 l-1.54 0 l-0.2 -3.9 l-0.28 0.4 q-0.52 0.72 -0.76 1.16 t-0.32 0.85 t-0.12 1.11 l-0.02 0.38 l-1.54 0 z M12.26 13.52 q0.18 -0.5 0.18 -1.42 l-0.44 -8.28 l-0.58 11.14 q0.66 -0.94 0.84 -1.44 z M20.38 1.3200000000000003 l0 18.68 l-1.62 0 l-1.58 -10.26 l0 10.26 l-1.58 0 l0 -18.68 l1.58 0 l1.58 10.1 l0 -10.1 l1.62 0 z M21.5 20 l0.98 -18.68 l2.82 0 l0.98 18.68 l-1.54 0 l-0.2 -3.9 l-0.28 0.4 q-0.52 0.72 -0.76 1.16 t-0.32 0.85 t-0.12 1.11 l-0.02 0.38 l-1.54 0 z M24.14 13.52 q0.18 -0.5 0.18 -1.42 l-0.44 -8.28 l-0.58 11.14 q0.66 -0.94 0.84 -1.44 z M29.380000000000003 8.22 q0.24 0.6 1.04 1.7 q0.8 1.12 1.16 1.74 t0.52 1.29 t0.16 1.71 l0 3.04 q0 2.3 -2.24 2.3 l-0.3 0 q-1.2 0 -1.72 -0.61 t-0.52 -1.69 l0 -4.66 l1.66 0 l0 4.44 q0 0.4 0.15 0.63 t0.57 0.23 t0.58 -0.23 t0.16 -0.63 l0 -3.06 q0 -0.92 -0.25 -1.5 t-1.05 -1.7 q-0.8 -1.1 -1.16 -1.74 t-0.51 -1.32 t-0.15 -1.72 l0 -3.08 q0 -1.1 0.52 -1.7 t1.72 -0.6 l0.3 0 q2.24 0 2.24 2.3 l0 4.7 l-1.66 0 l0 -4.48 q0 -0.4 -0.16 -0.63 t-0.58 -0.23 t-0.57 0.23 t-0.15 0.63 l0 3.08 q0 0.96 0.24 1.56 z M39.36 8.22 q0.24 0.6 1.04 1.7 q0.8 1.12 1.16 1.74 t0.52 1.29 t0.16 1.71 l0 3.04 q0 2.3 -2.24 2.3 l-0.3 0 q-1.2 0 -1.72 -0.61 t-0.52 -1.69 l0 -4.66 l1.66 0 l0 4.44 q0 0.4 0.15 0.63 t0.57 0.23 t0.58 -0.23 t0.16 -0.63 l0 -3.06 q0 -0.92 -0.25 -1.5 t-1.05 -1.7 q-0.8 -1.1 -1.16 -1.74 t-0.51 -1.32 t-0.15 -1.72 l0 -3.08 q0 -1.1 0.52 -1.7 t1.72 -0.6 l0.3 0 q2.24 0 2.24 2.3 l0 4.7 l-1.66 0 l0 -4.48 q0 -0.4 -0.16 -0.63 t-0.58 -0.23 t-0.57 0.23 t-0.15 0.63 l0 3.08 q0 0.96 0.24 1.56 z M43.36000000000001 20 l0.98 -18.68 l2.82 0 l0.98 18.68 l-1.54 0 l-0.2 -3.9 l-0.28 0.4 q-0.52 0.72 -0.76 1.16 t-0.32 0.85 t-0.12 1.11 l-0.02 0.38 l-1.54 0 z M46 13.52 q0.18 -0.5 0.18 -1.42 l-0.44 -8.28 l-0.58 11.14 q0.66 -0.94 0.84 -1.44 z M49.34 1.3200000000000003 l0 18.68 l1.64 0 l0.02 -5.58 q0 -0.92 0.25 -1.51 t1.05 -1.69 l0.16 -0.22 l0 9 l1.66 0 l0 -18.68 l-1.66 0 l0 5.34 q0 0.96 -0.24 1.56 t-1.04 1.7 q-0.18 0.24 -0.2 0.26 l0 -8.86 l-1.64 0 z M60.120000000000005 3.3599999999999994 l0 14.34 q0 2.3 -2.24 2.3 l0.88 0 l-1.18 0 q-1.2 0 -1.72 -0.61 t-0.52 -1.69 l0 -14.34 q0 -1.1 0.52 -1.7 t1.72 -0.6 l0.98 0 l-0.68 0 q2.24 0 2.24 2.3 z M58.46 3.5799999999999983 q0 -0.4 -0.16 -0.63 t-0.58 -0.23 t-0.57 0.23 t-0.15 0.63 l0 13.9 q0 0.4 0.15 0.63 t0.57 0.23 t0.58 -0.23 t0.16 -0.63 l0 -13.9 z M66.1 3.3599999999999994 l0 14.34 q0 2.3 -2.24 2.3 l0.88 0 l-1.18 0 q-1.2 0 -1.72 -0.61 t-0.52 -1.69 l0 -14.34 q0 -1.1 0.52 -1.7 t1.72 -0.6 l0.98 0 l-0.68 0 q2.24 0 2.24 2.3 z M64.44 3.5799999999999983 q0 -0.4 -0.16 -0.63 t-0.58 -0.23 t-0.57 0.23 t-0.15 0.63 l0 13.9 q0 0.4 0.15 0.63 t0.57 0.23 t0.58 -0.23 t0.16 -0.63 l0 -13.9 z"></path></g></svg>